<?xml version="1.0" standalone="no"?>
<!DOCTYPE svg PUBLIC "-//W3C//DTD SVG 1.1//EN"
  "http://www.w3.org/Graphics/SVG/1.1/DTD/svg11.dtd">
<svg width="800" height="800"
     xmlns="http://www.w3.org/2000/svg" version="1.1">
<rect x="0" y="0" width="100%" height="100%" fill="white" />
<defs>
<marker id="arrow" markerWidth="10" markerHeight="10" refX="10" refY="3" orient="auto">
<path d="M0,0 L0,6 L9,3 z"/>
</marker>
</defs>
<circle cx="182" cy="196" r="3" fill="blue" />
<circle cx="388" cy="501" r="3" fill="blue" />
<circle cx="214" cy="433" r="3" fill="blue" />
<circle cx="409" cy="360" r="3" fill="blue" />
<circle cx="375" cy="151" r="3" fill="blue" />
<circle cx="523" cy="599" r="3" fill="blue" />
<circle cx="686" cy="401" r="3" fill="blue" />
<circle cx="301" cy="394" r="3" fill="blue" />
<circle cx="353" cy="540" r="3" fill="blue" />
<circle cx="604" cy="435" r="3" fill="blue" />
<circle cx="193" cy="376" r="3" fill="blue" />
<circle cx="130" cy="193" r="3" fill="blue" />
<circle cx="363" cy="238" r="3" fill="blue" />
<circle cx="293" cy="604" r="3" fill="blue" />
<circle cx="604" cy="514" r="3" fill="blue" />
<circle cx="579" cy="687" r="3" fill="blue" />
<circle cx="321" cy="578" r="3" fill="blue" />
<circle cx="200" cy="436" r="3" fill="blue" />
<circle cx="311" cy="509" r="3" fill="blue" />
<circle cx="696" cy="298" r="3" fill="blue" />
<circle cx="272" cy="519" r="3" fill="blue" />
<circle cx="197" cy="258" r="3" fill="blue" />
<circle cx="532" cy="110" r="3" fill="blue" />
<circle cx="264" cy="497" r="3" fill="blue" />
<circle cx="262" cy="169" r="3" fill="blue" />
<circle cx="232" cy="355" r="3" fill="blue" />
<circle cx="157" cy="573" r="3" fill="blue" />
<circle cx="160" cy="131" r="3" fill="blue" />
<circle cx="111" cy="665" r="3" fill="blue" />
<circle cx="347" cy="328" r="3" fill="blue" />
<circle cx="479" cy="537" r="3" fill="blue" />
<circle cx="315" cy="101" r="3" fill="blue" />
<circle cx="416" cy="415" r="3" fill="blue" />
<circle cx="149" cy="338" r="3" fill="blue" />
<circle cx="536" cy="146" r="3" fill="blue" />
<circle cx="537" cy="109" r="3" fill="blue" />
<circle cx="277" cy="345" r="3" fill="blue" />
<circle cx="579" cy="421" r="3" fill="blue" />
<circle cx="356" cy="455" r="3" fill="blue" />
<circle cx="529" cy="229" r="3" fill="blue" />
<circle cx="235" cy="662" r="3" fill="blue" />
<circle cx="485" cy="292" r="3" fill="blue" />
<circle cx="247" cy="256" r="3" fill="blue" />
<circle cx="635" cy="570" r="3" fill="blue" />
<circle cx="222" cy="282" r="3" fill="blue" />
<circle cx="198" cy="601" r="3" fill="blue" />
<circle cx="120" cy="125" r="3" fill="blue" />
<circle cx="603" cy="436" r="3" fill="blue" />
<circle cx="152" cy="653" r="3" fill="blue" />
<circle cx="675" cy="588" r="3" fill="blue" />
<circle cx="182" cy="196" r="3" fill="blue" />
<line x1="130" y1="193" x2="182" y2="196"
      style="stroke: darkgray;"   />
<line x1="182" y1="196" x2="197" y2="258"
      style="stroke: darkgray;"   />
<line x1="262" y1="169" x2="182" y2="196"
      style="stroke: darkgray;"   />
<line x1="160" y1="131" x2="182" y2="196"
      style="stroke: red;"   />
<line x1="182" y1="196" x2="247" y2="256"
      style="stroke: red;"   />
<circle cx="388" cy="501" r="3" fill="blue" />
<line x1="388" y1="501" x2="353" y2="540"
      style="stroke: darkgray;"   />
<line x1="388" y1="501" x2="311" y2="509"
      style="stroke: red;"   />
<line x1="416" y1="415" x2="388" y2="501"
      style="stroke: red;"   />
<line x1="356" y1="455" x2="388" y2="501"
      style="stroke: darkgray;"   />
<circle cx="214" cy="433" r="3" fill="blue" />
<line x1="193" y1="376" x2="214" y2="433"
      style="stroke: red;"   />
<line x1="214" y1="433" x2="200" y2="436"
      style="stroke: darkgray;"   />
<line x1="214" y1="433" x2="264" y2="497"
      style="stroke: darkgray;"   />
<line x1="232" y1="355" x2="214" y2="433"
      style="stroke: darkgray;"   />
<circle cx="409" cy="360" r="3" fill="blue" />
<line x1="347" y1="328" x2="409" y2="360"
      style="stroke: darkgray;"   />
<line x1="409" y1="360" x2="416" y2="415"
      style="stroke: red;"   />
<circle cx="375" cy="151" r="3" fill="blue" />
<line x1="375" y1="151" x2="363" y2="238"
      style="stroke: red;"   />
<line x1="315" y1="101" x2="375" y2="151"
      style="stroke: red;"   />
<circle cx="523" cy="599" r="3" fill="blue" />
<line x1="479" y1="537" x2="523" y2="599"
      style="stroke: darkgray;"   />
<circle cx="686" cy="401" r="3" fill="blue" />
<line x1="686" y1="401" x2="604" y2="435"
      style="stroke: darkgray;"   />
<line x1="686" y1="401" x2="603" y2="436"
      style="stroke: darkgray;"   />
<circle cx="301" cy="394" r="3" fill="blue" />
<line x1="232" y1="355" x2="301" y2="394"
      style="stroke: darkgray;"   />
<line x1="347" y1="328" x2="301" y2="394"
      style="stroke: red;"   />
<line x1="277" y1="345" x2="301" y2="394"
      style="stroke: darkgray;"   />
<line x1="301" y1="394" x2="356" y2="455"
      style="stroke: red;"   />
<circle cx="353" cy="540" r="3" fill="blue" />
<line x1="353" y1="540" x2="293" y2="604"
      style="stroke: red;"   />
<line x1="353" y1="540" x2="321" y2="578"
      style="stroke: darkgray;"   />
<line x1="311" y1="509" x2="353" y2="540"
      style="stroke: darkgray;"   />
<line x1="272" y1="519" x2="353" y2="540"
      style="stroke: darkgray;"   />
<line x1="356" y1="455" x2="353" y2="540"
      style="stroke: darkgray;"   />
<circle cx="604" cy="435" r="3" fill="blue" />
<line x1="604" y1="435" x2="604" y2="514"
      style="stroke: darkgray;"   />
<line x1="579" y1="421" x2="604" y2="435"
      style="stroke: darkgray;"   />
<line x1="604" y1="435" x2="603" y2="436"
      style="stroke: darkgray;"   />
<circle cx="193" cy="376" r="3" fill="blue" />
<line x1="193" y1="376" x2="200" y2="436"
      style="stroke: darkgray;"   />
<line x1="232" y1="355" x2="193" y2="376"
      style="stroke: darkgray;"   />
<line x1="149" y1="338" x2="193" y2="376"
      style="stroke: red;"   />
<line x1="277" y1="345" x2="193" y2="376"
      style="stroke: darkgray;"   />
<circle cx="130" cy="193" r="3" fill="blue" />
<line x1="160" y1="131" x2="130" y2="193"
      style="stroke: darkgray;"   />
<line x1="120" y1="125" x2="130" y2="193"
      style="stroke: red;"   />
<circle cx="363" cy="238" r="3" fill="blue" />
<circle cx="293" cy="604" r="3" fill="blue" />
<line x1="321" y1="578" x2="293" y2="604"
      style="stroke: red;"   />
<line x1="272" y1="519" x2="293" y2="604"
      style="stroke: darkgray;"   />
<line x1="293" y1="604" x2="235" y2="662"
      style="stroke: red;"   />
<circle cx="604" cy="514" r="3" fill="blue" />
<line x1="604" y1="514" x2="635" y2="570"
      style="stroke: darkgray;"   />
<line x1="603" y1="436" x2="604" y2="514"
      style="stroke: darkgray;"   />
<circle cx="579" cy="687" r="3" fill="blue" />
<circle cx="321" cy="578" r="3" fill="blue" />
<line x1="311" y1="509" x2="321" y2="578"
      style="stroke: darkgray;"   />
<line x1="272" y1="519" x2="321" y2="578"
      style="stroke: red;"   />
<circle cx="200" cy="436" r="3" fill="blue" />
<line x1="200" y1="436" x2="264" y2="497"
      style="stroke: red;"   />
<line x1="232" y1="355" x2="200" y2="436"
      style="stroke: red;"   />
<circle cx="311" cy="509" r="3" fill="blue" />
<line x1="311" y1="509" x2="272" y2="519"
      style="stroke: darkgray;"   />
<line x1="264" y1="497" x2="311" y2="509"
      style="stroke: red;"   />
<line x1="356" y1="455" x2="311" y2="509"
      style="stroke: darkgray;"   />
<circle cx="696" cy="298" r="3" fill="blue" />
<circle cx="272" cy="519" r="3" fill="blue" />
<line x1="264" y1="497" x2="272" y2="519"
      style="stroke: red;"   />
<circle cx="197" cy="258" r="3" fill="blue" />
<line x1="247" y1="256" x2="197" y2="258"
      style="stroke: darkgray;"   />
<line x1="197" y1="258" x2="222" y2="282"
      style="stroke: red;"   />
<circle cx="532" cy="110" r="3" fill="blue" />
<line x1="532" y1="110" x2="536" y2="146"
      style="stroke: darkgray;"   />
<line x1="537" y1="109" x2="532" y2="110"
      style="stroke: darkgray;"   />
<circle cx="264" cy="497" r="3" fill="blue" />
<circle cx="262" cy="169" r="3" fill="blue" />
<line x1="315" y1="101" x2="262" y2="169"
      style="stroke: red;"   />
<line x1="262" y1="169" x2="247" y2="256"
      style="stroke: red;"   />
<circle cx="232" cy="355" r="3" fill="blue" />
<line x1="149" y1="338" x2="232" y2="355"
      style="stroke: red;"   />
<line x1="277" y1="345" x2="232" y2="355"
      style="stroke: darkgray;"   />
<line x1="222" y1="282" x2="232" y2="355"
      style="stroke: darkgray;"   />
<circle cx="157" cy="573" r="3" fill="blue" />
<line x1="157" y1="573" x2="198" y2="601"
      style="stroke: red;"   />
<line x1="157" y1="573" x2="152" y2="653"
      style="stroke: darkgray;"   />
<circle cx="160" cy="131" r="3" fill="blue" />
<line x1="120" y1="125" x2="160" y2="131"
      style="stroke: red;"   />
<circle cx="111" cy="665" r="3" fill="blue" />
<line x1="152" y1="653" x2="111" y2="665"
      style="stroke: red;"   />
<circle cx="347" cy="328" r="3" fill="blue" />
<line x1="347" y1="328" x2="277" y2="345"
      style="stroke: red;"   />
<circle cx="479" cy="537" r="3" fill="blue" />
<circle cx="315" cy="101" r="3" fill="blue" />
<circle cx="416" cy="415" r="3" fill="blue" />
<line x1="416" y1="415" x2="356" y2="455"
      style="stroke: red;"   />
<circle cx="149" cy="338" r="3" fill="blue" />
<circle cx="536" cy="146" r="3" fill="blue" />
<line x1="537" y1="109" x2="536" y2="146"
      style="stroke: darkgray;"   />
<line x1="536" y1="146" x2="529" y2="229"
      style="stroke: darkgray;"   />
<circle cx="537" cy="109" r="3" fill="blue" />
<circle cx="277" cy="345" r="3" fill="blue" />
<line x1="222" y1="282" x2="277" y2="345"
      style="stroke: red;"   />
<circle cx="579" cy="421" r="3" fill="blue" />
<line x1="579" y1="421" x2="603" y2="436"
      style="stroke: darkgray;"   />
<circle cx="356" cy="455" r="3" fill="blue" />
<circle cx="529" cy="229" r="3" fill="blue" />
<line x1="529" y1="229" x2="485" y2="292"
      style="stroke: darkgray;"   />
<circle cx="235" cy="662" r="3" fill="blue" />
<line x1="198" y1="601" x2="235" y2="662"
      style="stroke: darkgray;"   />
<line x1="152" y1="653" x2="235" y2="662"
      style="stroke: red;"   />
<circle cx="485" cy="292" r="3" fill="blue" />
<circle cx="247" cy="256" r="3" fill="blue" />
<line x1="247" y1="256" x2="222" y2="282"
      style="stroke: red;"   />
<circle cx="635" cy="570" r="3" fill="blue" />
<line x1="635" y1="570" x2="675" y2="588"
      style="stroke: darkgray;"   />
<circle cx="222" cy="282" r="3" fill="blue" />
<circle cx="198" cy="601" r="3" fill="blue" />
<line x1="198" y1="601" x2="152" y2="653"
      style="stroke: red;"   />
<circle cx="120" cy="125" r="3" fill="blue" />
<circle cx="603" cy="436" r="3" fill="blue" />
<circle cx="152" cy="653" r="3" fill="blue" />
<circle cx="675" cy="588" r="3" fill="blue" />
</svg>
